# xmcd CD database file
#
# Track frame offsets:
#	183
#	19235
#	36733
#	52223
#	68605
#	86270
#	104153
#	122043
#	142120
#
# Disc length: 2060 seconds
#
# Revision: 0
# Processed by: cddbd v1.5PL3 Copyright (c) Steve Scherf et al.
# Submitted via: CDex 1.51
#
DISCID=88080a09
DTITLE=한영애 - 1집
DYEAR=1986
DGENRE=Blues
TTITLE0=여울목
TTITLE1=완행열차
TTITLE2=제주도
TTITLE3=도시의 밤
TTITLE4=어젯밤 꿈
TTITLE5=건널수 없는 강
TTITLE6=밤이 오면
TTITLE7=젊은날의 아픔
TTITLE8=기분좋아
EXTD=YEAR: 1986
EXTT0=
EXTT1=
EXTT2=
EXTT3=
EXTT4=
EXTT5=
EXTT6=
EXTT7=
EXTT8=
PLAYORDER=
